<?xml version="1.0" encoding="utf-8"?>
<!-- Generator: Adobe Illustrator 21.0.2, SVG Export Plug-In . SVG Version: 6.00 Build 0)  -->
<svg version="1.1" id="Layer_1" xmlns="http://www.w3.org/2000/svg" xmlns:xlink="http://www.w3.org/1999/xlink" x="0px" y="0px"
	 width="300px" height="100px" viewBox="0 0 300 100" enable-background="new 0 0 300 100" xml:space="preserve">
<path fill="none" stroke="#fafafa" stroke-width="10.608" stroke-miterlimit="10" d="M101.21,49.995
	c0,23.374-18.948,42.322-42.321,42.322S16.567,73.368,16.567,49.995S35.515,7.673,58.889,7.673">

<animateTransform attributeName="transform"
	attributeType="XML"
	type="rotate"
	from="0 59 50"
	to="-360 59 50"
	dur="60s"
	repeatCount="indefinite"/>

	</path>
<path fill="none" stroke="#fafafa" stroke-width="10.608" stroke-miterlimit="10" d="M79.595,29.289">

</path>
<path fill="none" stroke="#fafafa" stroke-width="7.956" stroke-miterlimit="10" d="M58.888,22.923
	c14.952,0,27.072,12.121,27.072,27.072S73.839,77.067,58.888,77.067S31.815,64.946,31.815,49.995">

<animateTransform attributeName="transform"
	attributeType="XML"
	type="rotate"
	from="0 59 50"
	to="360 59 50"
	dur="10s"
	repeatCount="indefinite"/>

	</path>
<ellipse transform="matrix(0.7071 -0.7071 0.7071 0.7071 -18.1034 56.2838)" fill="#fafafa" stroke="#fafafa" stroke-width="6.63" stroke-miterlimit="10" cx="58.889" cy="49.995" rx="13.26" ry="13.26"/>
<g>
	<path fill="#fafafa" d="M230.018,91.49c0.414,0.271,1.146,0.558,1.847,0.558c1.019,0,1.495-0.51,1.495-1.146
		c0-0.668-0.397-1.034-1.432-1.416c-1.385-0.493-2.037-1.258-2.037-2.181c0-1.241,1.002-2.26,2.657-2.26
		c0.78,0,1.465,0.223,1.895,0.478l-0.351,1.019c-0.303-0.191-0.859-0.445-1.575-0.445c-0.828,0-1.289,0.478-1.289,1.05
		c0,0.637,0.461,0.923,1.464,1.306c1.337,0.509,2.021,1.178,2.021,2.323c0,1.353-1.051,2.308-2.881,2.308
		c-0.844,0-1.623-0.207-2.164-0.525L230.018,91.49z"/>
	<path fill="#fafafa" d="M238.196,83.008v2.212h2.006v1.066h-2.006v4.154c0,0.954,0.271,1.496,1.051,1.496
		c0.366,0,0.637-0.048,0.812-0.096l0.063,1.05c-0.271,0.111-0.7,0.191-1.241,0.191c-0.652,0-1.178-0.207-1.512-0.589
		c-0.398-0.414-0.541-1.099-0.541-2.005v-4.202h-1.194V85.22h1.194v-1.846L238.196,83.008z"/>
	<path fill="#fafafa" d="M248.222,90.822c0,0.796,0.016,1.496,0.063,2.101h-1.241l-0.08-1.257h-0.031
		c-0.366,0.62-1.178,1.432-2.547,1.432c-1.209,0-2.657-0.668-2.657-3.374V85.22h1.4v4.266c0,1.464,0.445,2.451,1.719,2.451
		c0.938,0,1.592-0.653,1.846-1.273c0.08-0.207,0.128-0.462,0.128-0.717V85.22h1.4V90.822z"/>
	<path fill="#fafafa" d="M257.196,81.623v9.311c0,0.685,0.016,1.464,0.063,1.989h-1.258l-0.063-1.337h-0.031
		c-0.43,0.859-1.369,1.512-2.626,1.512c-1.862,0-3.295-1.575-3.295-3.915c-0.016-2.563,1.576-4.138,3.454-4.138
		c1.178,0,1.974,0.557,2.323,1.178h0.032v-4.6H257.196z M255.796,88.355c0-0.175-0.017-0.414-0.064-0.589
		c-0.206-0.892-0.971-1.623-2.021-1.623c-1.448,0-2.308,1.272-2.308,2.976c0,1.56,0.764,2.849,2.275,2.849
		c0.939,0,1.799-0.62,2.053-1.671c0.048-0.191,0.064-0.382,0.064-0.604V88.355z"/>
	<path fill="#fafafa" d="M261.078,83.056c0.016,0.478-0.334,0.859-0.892,0.859c-0.493,0-0.844-0.382-0.844-0.859
		c0-0.493,0.366-0.875,0.876-0.875C260.744,82.181,261.078,82.563,261.078,83.056z M259.519,92.923V85.22h1.4v7.703H259.519z"/>
	<path fill="#fafafa" d="M270.213,89.008c0,2.849-1.974,4.09-3.836,4.09c-2.085,0-3.692-1.527-3.692-3.963
		c0-2.578,1.688-4.09,3.82-4.09C268.717,85.045,270.213,86.652,270.213,89.008z M264.102,89.087c0,1.688,0.971,2.961,2.339,2.961
		c1.337,0,2.34-1.258,2.34-2.992c0-1.305-0.652-2.96-2.308-2.96S264.102,87.623,264.102,89.087z"/>
	<path fill="#fafafa" d="M271.261,92.096c0-0.589,0.398-1.003,0.955-1.003c0.558,0,0.939,0.414,0.939,1.003
		c0,0.572-0.366,1.002-0.955,1.002C271.644,93.098,271.261,92.668,271.261,92.096z"/>
	<path fill="#fafafa" d="M280.38,92.637c-0.366,0.19-1.178,0.445-2.212,0.445c-2.324,0-3.836-1.575-3.836-3.931
		c0-2.372,1.624-4.091,4.138-4.091c0.828,0,1.561,0.207,1.942,0.398l-0.318,1.082c-0.334-0.191-0.859-0.366-1.624-0.366
		c-1.766,0-2.721,1.305-2.721,2.912c0,1.783,1.146,2.881,2.674,2.881c0.795,0,1.32-0.207,1.719-0.382L280.38,92.637z"/>
	<path fill="#fafafa" d="M282.018,81.623h1.4v11.3h-1.4V81.623z"/>
</g>
<path fill="none" stroke="#fafafa" stroke-width="6.7797" stroke-miterlimit="10" d="M139.484,52.853
	c-6.588,0-11.928,5.341-11.928,11.928c0,6.588,5.341,11.928,11.928,11.928c6.588,0,11.928-5.341,11.928-11.928V26.357"/>
<g>
	<path fill="#fafafa" stroke="#fafafa" stroke-width="2.6762" stroke-miterlimit="10" d="M207.453,75.383
		c-0.394,0.627-1.098,1.098-1.805,1.098c-0.784,0-1.491-0.47-1.885-1.098l-9.97-20.023l-10.05,20.023
		c-0.315,0.627-1.021,1.098-1.807,1.098c-0.786,0-1.491-0.47-1.805-1.098L168.275,51.67c-0.392-1.021-0.078-2.199,0.943-2.746
		c1.021-0.474,2.199-0.08,2.748,0.941l9.971,20.019l9.971-20.019c0.392-0.707,1.099-1.178,1.885-1.178
		c0.784,0,1.491,0.47,1.805,1.178l10.05,20.019l9.97-20.019c0.474-1.021,1.728-1.415,2.749-0.941
		c1.021,0.547,1.411,1.725,0.944,2.746L207.453,75.383z"/>
	<path fill="#fafafa" stroke="#fafafa" stroke-width="2.6762" stroke-miterlimit="10" d="M228.643,64.626
		c0.941,4.474,4.967,6.809,9.579,7.771c2.699,0.563,3.872,0.701,6.91,0.666c1.372-0.061,1.603-0.076,2.903,0
		c1.114,0.065,1.534,2.206,0,2.903c-1.363,0.516-5.393,1.067-9.813,0.516c-7.635-0.952-13.817-6.203-13.817-13.897
		c0-7.617,6.203-13.897,13.817-13.897c7.617,0,13.897,6.279,13.897,13.897c0,1.178-0.941,2.042-2.042,2.042H228.643z
		 M228.643,60.542h19.159c-0.944-4.398-4.868-7.771-9.579-7.771S229.584,56.145,228.643,60.542z"/>
</g>
<g>
	<g>
		<path fill="#fafafa" d="M158.057,33.848c1.526,3.115,3.053,6.231,4.579,9.346c1.94,3.959,7.85,0.491,5.916-3.458
			c-1.526-3.115-3.053-6.231-4.579-9.346C162.033,26.432,156.122,29.9,158.057,33.848L158.057,33.848z"/>
	</g>
</g>
<path fill="none" stroke="#fafafa" stroke-width="6.7797" stroke-miterlimit="10" d="M271.504,52.742
	c6.588,0,11.928,5.341,11.928,11.928c0,6.588-5.341,11.928-11.928,11.928c-6.588,0-11.928-5.341-11.928-11.928V26.469"/>
</svg>
